<svg xmlns="http://www.w3.org/2000/svg" width="564" height="364" viewBox="0 0 564 364">
  <g id="グループ_35" data-name="グループ 35" transform="translate(-105.26 -93.82)">
    <g id="グループ_10" data-name="グループ 10" transform="translate(105.26 93.82)">
      <rect id="長方形_21" data-name="長方形 21" width="355.83" height="74.93" transform="translate(0)" fill="#fff"/>
      <g id="グループ_9" data-name="グループ 9" transform="translate(0 0)">
        <path id="パス_4" data-name="パス 4" d="M2357.115,68.139a69.253,69.253,0,0,0-17.495-10.318c.507,8.288-2.114,13.193-15.89,13.193-15.382,0-20.03-6.174-20.03-11.925,0-7.358,7.352-13.192,19.692-13.192a46.391,46.391,0,0,1,6.17.423c-.592-19.62-.507-21.82-.507-36.619v-6L2339.2,5.135c.424.085,2.029.338,2.029,1.1,0,.338-.083.423-1.1,1.1-.507.338-.931.592-1.015,1.269-.168,1.1-.422,7.273-.422,10.232a20.426,20.426,0,0,0,3.549.17c9.889,0,14.537-1.861,17.157-2.875v9.81a65.563,65.563,0,0,1-15.382,2.029c-1.69,0-3.973-.084-5.664-.254-.085,7.189-.085,9.895.593,20.636a78.38,78.38,0,0,1,23.5,11.248ZM2322.3,54.1c-5.325,0-8.283,1.945-8.283,4.4,0,3.552,6.253,4.313,9.043,4.313,6.761,0,6.676-4.229,6.676-7.949A43.772,43.772,0,0,0,2322.3,54.1Z" transform="translate(-2303.701 -0.145)"/>
        <path id="パス_5" data-name="パス 5" d="M2436.1,60.722c-7.186,8.711-16.228,11.925-21.976,14.039l-6.508-8.119c4.987-1.438,14.115-4.144,21.129-12.685a25.961,25.961,0,0,0,6.17-16.153c0-7.442-4.986-8.964-7.607-8.964-7.014,0-20.621,6.765-26.791,9.809l-3.888-9.809c6.255-2.454,22.4-8.88,33.215-8.88,2.2,0,7.437.423,11.24,4.651,3.042,3.382,3.634,8.456,3.634,12.008A37.912,37.912,0,0,1,2436.1,60.722Zm-3.467-48.2a230.183,230.183,0,0,1-23.411-2.114L2408.461,0c9.8,2.368,15.636,2.791,25.356,2.96Z" transform="translate(-2307.376 -0.001)"/>
        <path id="パス_6" data-name="パス 6" d="M2509.111,68.29c-7.521,0-19.608-.677-24.509-5.328a8.08,8.08,0,0,1-2.789-6.6c0-7.527,4.479-12.263,8.451-16.153l7.776,6.343c-2.113,1.776-4.986,4.4-4.986,7.272a3.136,3.136,0,0,0,1.182,2.706c2.366,2.031,10.65,2.031,14.368,2.031,14.537,0,20.03-1.016,26.369-2.283l.506,10.486C2528.043,67.444,2518.915,68.29,2509.111,68.29Zm2.2-36.534-6.169-6.681,8.621-7.272c-14.03,0-19.778-.085-24.764-.507l-2.281-9.726a137,137,0,0,0,22.82,1.945A137.02,137.02,0,0,0,2528.128,8.5l3.973,7.1C2524.664,20.678,2515.957,27.865,2511.309,31.756Z" transform="translate(-2310.745 -0.296)"/>
        <path id="パス_7" data-name="パス 7" d="M2604.917,41.549c-4.058,4.059-6.761,8.373-6.761,13.531,0,10.318,11.832,10.572,16.988,10.656l-1.689,9.218c-4.564-.423-11.918-1.1-18.341-5.666-4.564-3.3-6.846-7.611-6.846-12.432,0-1.268.253-12.431,13.016-21.9-9.974,1.945-21.13,4.059-29.836,6.089-1.1.254-1.943.423-3.38.846l-1.775-9.218c2.957-.254,14.621-1.184,16.649-2.2,2.619-1.353,13.523-12.094,19.607-20.043a90.1,90.1,0,0,1-19.269,2.114l-3.635-8.457c2.7.169,5.494.423,9.382.423a78.885,78.885,0,0,0,25.017-3.89l4.311,7.1a225.511,225.511,0,0,0-20.623,20.044c1.69-.339,5.24-.846,9.973-1.862,2.958-.592,15.89-3.551,18.594-4.144v9.134C2619.876,31.992,2613.115,33.176,2604.917,41.549Z" transform="translate(-2314.085 -0.025)"/>
        <path id="パス_8" data-name="パス 8" d="M2654.384,51.128a49.737,49.737,0,0,1,18.762,18.351l-8.79,7.019a69.53,69.53,0,0,0-16.312-18.775Z" transform="translate(-2317.318 -1.993)"/>
      </g>
    </g>
    <g id="グループ_12" data-name="グループ 12" transform="translate(105.26 238.355)">
      <rect id="長方形_22" data-name="長方形 22" width="564" height="74.93" transform="translate(0)" fill="#fff"/>
      <g id="グループ_11" data-name="グループ 11" transform="translate(0 0.381)">
        <path id="パス_9" data-name="パス 9" d="M2309.448,219.919l-5.748-5.835v-55.9l10.058,1.269c.592.085,2.282.338,2.282,1.183,0,.339-.084.508-.845,1.184-1.268,1.016-1.352,1.1-1.352,1.438v42.454c3.38-.846,10.226-2.537,20.791-9.557a116.93,116.93,0,0,0,20.2-17.421l5.157,9.3C2347.228,202.243,2327.281,214.168,2309.448,219.919Z" transform="translate(-2303.701 -151.079)"/>
        <path id="パス_10" data-name="パス 10" d="M2439.37,202.549c-6.255-5.834-14.707-12.685-24.848-16.913V222.17h-9.974V155.191l10.141,1.776c.254.085,2.03.338,2.03,1.353,0,.507-2.2,1.86-2.2,2.283v22.241l3.971-6.258a75.444,75.444,0,0,1,14.367,7.7,103.493,103.493,0,0,1,13.186,10.149Z" transform="translate(-2307.689 -150.962)"/>
        <path id="パス_11" data-name="パス 11" d="M2521.086,218.317v-3.637h-38.455v3.3h-10.058V162.67h58.572v55.647Zm0-46.091h-38.455v32.9h38.455Z" transform="translate(-2310.379 -151.254)"/>
        <path id="パス_12" data-name="パス 12" d="M2603.473,179.122c-1.437,21.734-7.607,33.32-23.581,45.836l-9.973-6.173a44.6,44.6,0,0,0,18.088-18.352,43.574,43.574,0,0,0,5.07-21.311h-17.241c-4.142,6.512-7.27,10.91-13.016,16.406l-9.55-5.327c12.085-10.656,20.2-25.878,23.579-39.41l9.552,3.467c.676.254,2.112.93,2.112,1.691,0,.507-.76.761-1.183.93-1.1.423-1.183.677-1.437,1.438a108.187,108.187,0,0,1-4.817,11.163h42.681v9.641Zm10.9-13.615a49.506,49.506,0,0,0-6.761-8.2l4.395-3.552a46.036,46.036,0,0,1,6.931,8.288Zm10.4-2.96a32.046,32.046,0,0,0-6.339-8.034l4.4-3.637a40.421,40.421,0,0,1,6.508,8.288Z" transform="translate(-2313.57 -150.791)"/>
        <path id="パス_13" data-name="パス 13" d="M2647.6,195.411V184.67H2707.7v10.741Z" transform="translate(-2317.301 -152.111)"/>
        <path id="パス_14" data-name="パス 14" d="M2789.723,219.194a62.863,62.863,0,0,0-3.551-9.472c-8.113,1.353-48.344,8.034-48.936,8.457-.169.085-1.183,1.1-1.268,1.184a.878.878,0,0,1-.676.338c-.676,0-.929-.761-1.268-2.283l-2.028-9.81c2.028-.085,4.479-.254,9.382-.677,6.592-16.744,12.931-35.266,16.651-49.98L2768,159.4c.76.169,2.367.761,2.367,1.606,0,.424-.17.508-1.606,1.354-.845.423-1.014.677-1.775,2.96-4.479,13.108-11.579,31.46-15.3,40.593,12-1.353,20.875-2.537,30.173-4.144a76.273,76.273,0,0,0-9.72-13.108l8.959-4.482a111.913,111.913,0,0,1,18.171,29.768Z" transform="translate(-2320.638 -151.031)"/>
        <path id="パス_15" data-name="パス 15" d="M2882.684,206.891c-6.339,9.387-15.128,13.024-19.692,14.885l-6.255-8.711c3.8-1.1,10.058-2.875,15.213-9.048a26.47,26.47,0,0,0,6.085-16.83,19.946,19.946,0,0,0-6.085-14.8c-5.325-5.073-11.24-5.412-14.367-5.666-2.7,20.128-7.691,31.968-10.481,37.634-2.535,5.243-6.423,12.348-10.818,12.348-3.042,0-16.9-7.611-16.9-22.749,0-18.775,15.466-35.858,37.272-35.858,17.579,0,31.441,11.925,31.441,30.783A31.609,31.609,0,0,1,2882.684,206.891Zm-45.471-32.559a27.708,27.708,0,0,0-8.452,18.774c0,6.85,3.888,10.4,5.409,10.4,4.4,0,11.665-22.072,13.355-35.266A24.968,24.968,0,0,0,2837.214,174.332Z" transform="translate(-2324.094 -151.076)"/>
      </g>
    </g>
    <g id="グループ_14" data-name="グループ 14" transform="translate(105.26 382.89)">
      <rect id="長方形_23" data-name="長方形 23" width="279" height="74.93" transform="translate(0)" fill="#fff"/>
      <g id="グループ_13" data-name="グループ 13" transform="translate(0 0.508)">
        <path id="パス_16" data-name="パス 16" d="M2364.976,330.324v26.216h-9.382V353.5h-10.733v3.045h-9.381V330.324h-11.241v31.967h46.57v8.795h-46.57v2.706h-9.55V330.324H2303.7v-8.88h10.988V304.953l9.043.423c1.859.086,1.943.508,1.943.761s-.084.508-.676.93c-.675.507-.76.846-.76,1.1v13.278h11.241V301.317l8.959.591c1.1.086,1.859.338,1.859,1.015,0,.338-.084.507-.676.93-.676.592-.761.93-.761,1.27v16.321h10.733V304.276l9.213.424c1.184.084,1.944.337,1.944,1.014,0,.254-.084.508-.76,1.015a1.942,1.942,0,0,0-1.015,1.438v13.278h11.495v8.88Zm-9.382,0h-10.733v14.123h10.733Z" transform="translate(-2303.701 -301.317)"/>
        <path id="パス_17" data-name="パス 17" d="M2458.474,356.335a66.984,66.984,0,0,1-14.791-7.273v24.609h-9.634V344.41h3.127a84.125,84.125,0,0,1-10.143-10.318,81.628,81.628,0,0,1-10.312,10.487l4.819,1.184c.591.169.844.507.844.846a1.947,1.947,0,0,1-.338.93c-.169.254-1.014,1.184-1.183,1.438-.253.423-.422,6.6-.676,7.781-1.774,10.063-7.269,14.292-14.959,18.52l-7.184-6.85c3.888-1.522,13.439-5.328,13.439-16.575a29.4,29.4,0,0,0-.17-3.129c-7.606,5.074-11.325,6.681-14.79,8.119l-6.846-7.442c12.171-3.721,18.087-7.442,25.271-15.308h-16.565V302.548h58.571v31.544h-17.325a33.275,33.275,0,0,0,10.733,8.626,59.563,59.563,0,0,0,14.875,5.5Zm-35.582-46.429h-15.467v4.736h15.467Zm0,11.164h-15.467v5.92h15.467Zm24.934-11.164h-14.876v4.736h14.876Zm0,11.164h-14.876v5.92h14.876Z" transform="translate(-2307.101 -301.365)"/>
        <path id="パス_18" data-name="パス 18" d="M2545.431,362.764c-11.241-9.388-20.706-20.551-29.666-32.052-2.789-3.467-3.8-4.821-5.916-4.821-2.366,0-4.141,2.368-4.9,3.467-2.79,3.806-11.918,16.068-16.4,20.973l-9.465-6.089c7.691-6.85,12.763-13.784,21.045-24.948,1.268-1.691,4.226-5.835,9.044-5.835,3.972,0,5.747,1.945,9.8,6.681,15.128,17.336,23.58,26.3,34.061,33.49Z" transform="translate(-2310.636 -301.79)"/>
        <path id="パス_19" data-name="パス 19" d="M2593.113,363.531a13.058,13.058,0,1,1-13.015-13.024A13.153,13.153,0,0,1,2593.113,363.531Zm-22.059,0a9,9,0,1,0,9.044-8.965A9.038,9.038,0,0,0,2571.054,363.531Z" transform="translate(-2314.113 -303.233)"/>
      </g>
    </g>
  </g>
</svg>
