<svg id="グループ_54" data-name="グループ 54" xmlns="http://www.w3.org/2000/svg" width="21" height="21" viewBox="0 0 21 21">
  <g id="グループ_2" data-name="グループ 2" transform="translate(6.221 3.345)">
    <path id="パス_2" data-name="パス 2" d="M650.061,450.973c-1.7,0-2.332,1.9-2.332,1.9l-2.016-.929a4.627,4.627,0,0,1,4.348-3.222,4.052,4.052,0,0,1,4.21,3.953c0,1.739-.909,2.57-2.194,3.7-.692.613-.732.652-.732,1.364v1.008h-2.352v-1.463c0-1.284.494-1.561,1.779-2.668.731-.632,1.127-1.008,1.127-1.937A1.8,1.8,0,0,0,650.061,450.973Zm.118,8.934a1.561,1.561,0,1,1-1.562,1.561A1.552,1.552,0,0,1,650.18,459.907Z" transform="translate(-645.713 -448.72)" fill="#aaa"/>
  </g>
  <g id="グループ_3" data-name="グループ 3">
    <path id="パス_3" data-name="パス 3" d="M637.819,459.829a10.5,10.5,0,1,1,10.5-10.5A10.512,10.512,0,0,1,637.819,459.829Zm0-18.971a8.471,8.471,0,1,0,8.471,8.471A8.48,8.48,0,0,0,637.819,440.858Z" transform="translate(-627.319 -438.829)" fill="#aaa"/>
  </g>
</svg>
